<mxfile host="app.diagrams.net" agent="Mozilla/5.0 (Windows NT 10.0; Win64; x64) AppleWebKit/537.36 (KHTML, like Gecko) Chrome/134.0.0.0 Safari/537.36" version="26.1.1">
  <diagram name="Page-1" id="GVzsFJqMD6ta2C2aBacJ">
    <mxGraphModel dx="1513" dy="438" grid="0" gridSize="10" guides="1" tooltips="1" connect="1" arrows="1" fold="1" page="0" pageScale="1" pageWidth="850" pageHeight="1100" math="0" shadow="0">
      <root>
        <mxCell id="0" />
        <mxCell id="1" parent="0" />
        <mxCell id="Dhb2PKW5Rq0647uUdCbm-11" style="edgeStyle=orthogonalEdgeStyle;rounded=0;orthogonalLoop=1;jettySize=auto;html=1;entryX=0.5;entryY=0;entryDx=0;entryDy=0;" parent="1" source="Dhb2PKW5Rq0647uUdCbm-1" target="Dhb2PKW5Rq0647uUdCbm-2" edge="1">
          <mxGeometry relative="1" as="geometry" />
        </mxCell>
        <mxCell id="Dhb2PKW5Rq0647uUdCbm-1" value="Input Image (RGB pixel data)" style="rounded=1;whiteSpace=wrap;html=1;" parent="1" vertex="1">
          <mxGeometry x="37" y="17" width="152" height="50" as="geometry" />
        </mxCell>
        <mxCell id="Dhb2PKW5Rq0647uUdCbm-19" style="edgeStyle=orthogonalEdgeStyle;rounded=0;orthogonalLoop=1;jettySize=auto;html=1;exitX=0.5;exitY=1;exitDx=0;exitDy=0;entryX=0.5;entryY=0;entryDx=0;entryDy=0;" parent="1" source="Dhb2PKW5Rq0647uUdCbm-2" target="Dhb2PKW5Rq0647uUdCbm-3" edge="1">
          <mxGeometry relative="1" as="geometry" />
        </mxCell>
        <mxCell id="Dhb2PKW5Rq0647uUdCbm-2" value="Extract unique RGB colors and compute distance to white (255, 255, 255)." style="rounded=1;whiteSpace=wrap;html=1;" parent="1" vertex="1">
          <mxGeometry x="23" y="97" width="180" height="60" as="geometry" />
        </mxCell>
        <mxCell id="Dhb2PKW5Rq0647uUdCbm-9" style="edgeStyle=orthogonalEdgeStyle;rounded=0;orthogonalLoop=1;jettySize=auto;html=1;entryX=0.5;entryY=0;entryDx=0;entryDy=0;" parent="1" source="Dhb2PKW5Rq0647uUdCbm-3" target="Dhb2PKW5Rq0647uUdCbm-4" edge="1">
          <mxGeometry relative="1" as="geometry" />
        </mxCell>
        <mxCell id="Dhb2PKW5Rq0647uUdCbm-20" style="edgeStyle=orthogonalEdgeStyle;rounded=0;orthogonalLoop=1;jettySize=auto;html=1;entryX=0;entryY=0.5;entryDx=0;entryDy=0;exitX=1;exitY=0.5;exitDx=0;exitDy=0;" parent="1" source="Dhb2PKW5Rq0647uUdCbm-3" target="Dhb2PKW5Rq0647uUdCbm-6" edge="1">
          <mxGeometry relative="1" as="geometry">
            <Array as="points">
              <mxPoint x="260" y="242" />
              <mxPoint x="260" y="47" />
            </Array>
          </mxGeometry>
        </mxCell>
        <mxCell id="Dhb2PKW5Rq0647uUdCbm-3" value="Recursively partition the distance array using binary K-means. In each iteration, split the cluster with the largest variance into two. Stop when the maximum distance between points within any cluster is less than the threshold." style="rounded=1;whiteSpace=wrap;html=1;" parent="1" vertex="1">
          <mxGeometry x="-1" y="178" width="228" height="128" as="geometry" />
        </mxCell>
        <mxCell id="Dhb2PKW5Rq0647uUdCbm-10" style="edgeStyle=orthogonalEdgeStyle;rounded=0;orthogonalLoop=1;jettySize=auto;html=1;" parent="1" source="Dhb2PKW5Rq0647uUdCbm-4" target="Dhb2PKW5Rq0647uUdCbm-5" edge="1">
          <mxGeometry relative="1" as="geometry" />
        </mxCell>
        <mxCell id="Dhb2PKW5Rq0647uUdCbm-4" value="All the leaf-nodes are final clusters." style="rounded=1;whiteSpace=wrap;html=1;" parent="1" vertex="1">
          <mxGeometry x="23" y="331" width="180" height="50" as="geometry" />
        </mxCell>
        <mxCell id="Dhb2PKW5Rq0647uUdCbm-5" value="Determine a representative color for each final cluster." style="rounded=1;whiteSpace=wrap;html=1;" parent="1" vertex="1">
          <mxGeometry x="23" y="411" width="180" height="50" as="geometry" />
        </mxCell>
        <mxCell id="Dhb2PKW5Rq0647uUdCbm-14" style="edgeStyle=orthogonalEdgeStyle;rounded=0;orthogonalLoop=1;jettySize=auto;html=1;" parent="1" source="Dhb2PKW5Rq0647uUdCbm-6" target="Dhb2PKW5Rq0647uUdCbm-12" edge="1">
          <mxGeometry relative="1" as="geometry" />
        </mxCell>
        <mxCell id="Dhb2PKW5Rq0647uUdCbm-16" style="edgeStyle=orthogonalEdgeStyle;rounded=0;orthogonalLoop=1;jettySize=auto;html=1;entryX=0.5;entryY=0;entryDx=0;entryDy=0;exitX=0.5;exitY=1;exitDx=0;exitDy=0;" parent="1" source="Dhb2PKW5Rq0647uUdCbm-6" target="Dhb2PKW5Rq0647uUdCbm-15" edge="1">
          <mxGeometry relative="1" as="geometry">
            <Array as="points">
              <mxPoint x="588" y="121" />
              <mxPoint x="720" y="121" />
            </Array>
          </mxGeometry>
        </mxCell>
        <mxCell id="Dhb2PKW5Rq0647uUdCbm-6" value="Lets assume that the Image shape is: AxBx3&lt;br&gt;- Unique colors: Nx3&lt;br&gt;- Distance of each color with white: Nx1" style="rounded=1;whiteSpace=wrap;html=1;" parent="1" vertex="1">
          <mxGeometry x="457.5" y="12" width="260" height="70" as="geometry" />
        </mxCell>
        <mxCell id="Dhb2PKW5Rq0647uUdCbm-26" style="edgeStyle=orthogonalEdgeStyle;rounded=0;orthogonalLoop=1;jettySize=auto;html=1;exitX=0.5;exitY=1;exitDx=0;exitDy=0;" parent="1" source="Dhb2PKW5Rq0647uUdCbm-12" target="Dhb2PKW5Rq0647uUdCbm-22" edge="1">
          <mxGeometry relative="1" as="geometry" />
        </mxCell>
        <mxCell id="Dhb2PKW5Rq0647uUdCbm-27" style="edgeStyle=orthogonalEdgeStyle;rounded=0;orthogonalLoop=1;jettySize=auto;html=1;entryX=0.5;entryY=0;entryDx=0;entryDy=0;exitX=0.5;exitY=1;exitDx=0;exitDy=0;" parent="1" source="Dhb2PKW5Rq0647uUdCbm-12" target="Dhb2PKW5Rq0647uUdCbm-23" edge="1">
          <mxGeometry relative="1" as="geometry" />
        </mxCell>
        <mxCell id="Dhb2PKW5Rq0647uUdCbm-12" value="Cluster 1&lt;br&gt;- Max Distance &amp;gt; X: &lt;b&gt;Re-Cluster&lt;/b&gt;" style="ellipse;whiteSpace=wrap;html=1;fillColor=#f8cecc;strokeColor=#b85450;" parent="1" vertex="1">
          <mxGeometry x="413" y="160" width="115" height="60" as="geometry" />
        </mxCell>
        <mxCell id="Dhb2PKW5Rq0647uUdCbm-29" style="edgeStyle=orthogonalEdgeStyle;rounded=0;orthogonalLoop=1;jettySize=auto;html=1;entryX=0.5;entryY=0;entryDx=0;entryDy=0;" parent="1" source="Dhb2PKW5Rq0647uUdCbm-15" target="Dhb2PKW5Rq0647uUdCbm-24" edge="1">
          <mxGeometry relative="1" as="geometry" />
        </mxCell>
        <mxCell id="Dhb2PKW5Rq0647uUdCbm-30" style="edgeStyle=orthogonalEdgeStyle;rounded=0;orthogonalLoop=1;jettySize=auto;html=1;entryX=0.5;entryY=0;entryDx=0;entryDy=0;" parent="1" source="Dhb2PKW5Rq0647uUdCbm-15" target="Dhb2PKW5Rq0647uUdCbm-28" edge="1">
          <mxGeometry relative="1" as="geometry" />
        </mxCell>
        <mxCell id="Dhb2PKW5Rq0647uUdCbm-15" value="Cluster 2&lt;br&gt;- Max Distance &amp;gt; X: &lt;b&gt;Re-Cluster&lt;/b&gt;" style="ellipse;whiteSpace=wrap;html=1;fillColor=#f8cecc;strokeColor=#b85450;" parent="1" vertex="1">
          <mxGeometry x="660" y="160" width="120" height="60" as="geometry" />
        </mxCell>
        <mxCell id="Dhb2PKW5Rq0647uUdCbm-17" value="Binary KMeans" style="text;html=1;align=center;verticalAlign=middle;whiteSpace=wrap;rounded=0;fillColor=#fff2cc;strokeColor=#d6b656;fontStyle=1" parent="1" vertex="1">
          <mxGeometry x="560" y="126" width="60" height="30" as="geometry" />
        </mxCell>
        <mxCell id="Dhb2PKW5Rq0647uUdCbm-21" value="&lt;b&gt;Distance Threshold&lt;/b&gt;: Maximum distance between 2 extreme points within the cluster&amp;nbsp;&lt;br&gt;- Lets keep the threshold value as &lt;b&gt;&quot;X&quot;&lt;/b&gt;" style="text;html=1;align=center;verticalAlign=middle;whiteSpace=wrap;rounded=0;fillColor=#fff2cc;strokeColor=#d6b656;" parent="1" vertex="1">
          <mxGeometry x="266" y="61" width="180" height="80" as="geometry" />
        </mxCell>
        <mxCell id="Dhb2PKW5Rq0647uUdCbm-22" value="Cluster 3&lt;br&gt;- Max Distance &amp;lt; X: &lt;font size=&quot;1&quot; color=&quot;#000099&quot;&gt;&lt;u style=&quot;font-size: 13px;&quot;&gt;&lt;b&gt;Stop&lt;/b&gt;&lt;/u&gt;&lt;/font&gt;" style="ellipse;whiteSpace=wrap;html=1;fillColor=#d5e8d4;strokeColor=#82b366;" parent="1" vertex="1">
          <mxGeometry x="347" y="257" width="120" height="60" as="geometry" />
        </mxCell>
        <mxCell id="Dhb2PKW5Rq0647uUdCbm-33" style="edgeStyle=orthogonalEdgeStyle;rounded=0;orthogonalLoop=1;jettySize=auto;html=1;entryX=0.5;entryY=0;entryDx=0;entryDy=0;" parent="1" source="Dhb2PKW5Rq0647uUdCbm-23" target="Dhb2PKW5Rq0647uUdCbm-31" edge="1">
          <mxGeometry relative="1" as="geometry" />
        </mxCell>
        <mxCell id="Dhb2PKW5Rq0647uUdCbm-34" style="edgeStyle=orthogonalEdgeStyle;rounded=0;orthogonalLoop=1;jettySize=auto;html=1;entryX=0.5;entryY=0;entryDx=0;entryDy=0;" parent="1" source="Dhb2PKW5Rq0647uUdCbm-23" target="Dhb2PKW5Rq0647uUdCbm-32" edge="1">
          <mxGeometry relative="1" as="geometry" />
        </mxCell>
        <mxCell id="Dhb2PKW5Rq0647uUdCbm-23" value="Cluster 4&lt;br&gt;- Max Distance &amp;gt; X: &lt;b&gt;Re-Cluster&lt;/b&gt;" style="ellipse;whiteSpace=wrap;html=1;fillColor=#f8cecc;strokeColor=#b85450;" parent="1" vertex="1">
          <mxGeometry x="472" y="254" width="120" height="60" as="geometry" />
        </mxCell>
        <mxCell id="Dhb2PKW5Rq0647uUdCbm-24" value="Cluster 5&lt;br&gt;- Max Distance &amp;lt; X:&amp;nbsp;&lt;br&gt;&lt;u style=&quot;color: rgb(0, 0, 153); font-size: 13px;&quot;&gt;&lt;b&gt;Stop&lt;/b&gt;&lt;/u&gt;" style="ellipse;whiteSpace=wrap;html=1;fillColor=#d5e8d4;strokeColor=#82b366;" parent="1" vertex="1">
          <mxGeometry x="600" y="260" width="120" height="60" as="geometry" />
        </mxCell>
        <mxCell id="Dhb2PKW5Rq0647uUdCbm-28" value="Cluster 6&lt;br&gt;- Max Distance &amp;lt; X:&amp;nbsp;&lt;br&gt;&lt;u style=&quot;color: rgb(0, 0, 153); font-size: 13px;&quot;&gt;&lt;b&gt;Stop&lt;/b&gt;&lt;/u&gt;" style="ellipse;whiteSpace=wrap;html=1;fillColor=#d5e8d4;strokeColor=#82b366;" parent="1" vertex="1">
          <mxGeometry x="730" y="260" width="120" height="60" as="geometry" />
        </mxCell>
        <mxCell id="Dhb2PKW5Rq0647uUdCbm-31" value="Cluster 7&lt;br&gt;- Max Distance &amp;lt; X:&amp;nbsp;&lt;br&gt;&lt;u style=&quot;color: rgb(0, 0, 153); font-size: 13px;&quot;&gt;&lt;b&gt;Stop&lt;/b&gt;&lt;/u&gt;" style="ellipse;whiteSpace=wrap;html=1;fillColor=#d5e8d4;strokeColor=#82b366;" parent="1" vertex="1">
          <mxGeometry x="390" y="365" width="120" height="60" as="geometry" />
        </mxCell>
        <mxCell id="Dhb2PKW5Rq0647uUdCbm-32" value="Cluster 8&lt;br&gt;- Max Distance &amp;lt; X:&amp;nbsp;&lt;br&gt;&lt;u style=&quot;color: rgb(0, 0, 153); font-size: 13px;&quot;&gt;&lt;b&gt;Stop&lt;/b&gt;&lt;/u&gt;" style="ellipse;whiteSpace=wrap;html=1;fillColor=#d5e8d4;strokeColor=#82b366;" parent="1" vertex="1">
          <mxGeometry x="550" y="365" width="114" height="57" as="geometry" />
        </mxCell>
        <mxCell id="Dhb2PKW5Rq0647uUdCbm-35" value="Leaf Node" style="text;html=1;align=center;verticalAlign=middle;whiteSpace=wrap;rounded=0;fontStyle=1" parent="1" vertex="1">
          <mxGeometry x="377" y="317" width="60" height="20" as="geometry" />
        </mxCell>
        <mxCell id="Dhb2PKW5Rq0647uUdCbm-37" value="Leaf Node" style="text;html=1;align=center;verticalAlign=middle;whiteSpace=wrap;rounded=0;fontStyle=1" parent="1" vertex="1">
          <mxGeometry x="760" y="320" width="60" height="20" as="geometry" />
        </mxCell>
        <mxCell id="Dhb2PKW5Rq0647uUdCbm-38" value="Leaf Node" style="text;html=1;align=center;verticalAlign=middle;whiteSpace=wrap;rounded=0;fontStyle=1" parent="1" vertex="1">
          <mxGeometry x="428" y="425" width="60" height="20" as="geometry" />
        </mxCell>
        <mxCell id="Dhb2PKW5Rq0647uUdCbm-39" value="Leaf Node" style="text;html=1;align=center;verticalAlign=middle;whiteSpace=wrap;rounded=0;fontStyle=1" parent="1" vertex="1">
          <mxGeometry x="588" y="425" width="60" height="20" as="geometry" />
        </mxCell>
        <mxCell id="2ZptRFR22y6thFvtGwWz-3" value="Leaf Node" style="text;html=1;align=center;verticalAlign=middle;whiteSpace=wrap;rounded=0;fontStyle=1" vertex="1" parent="1">
          <mxGeometry x="633" y="320" width="60" height="20" as="geometry" />
        </mxCell>
      </root>
    </mxGraphModel>
  </diagram>
</mxfile>
